# xmcd CD database file
#
# Track frame offsets:
#	150
#	19159
#	32448
#	43600
#	54940
#	69473
#	72730
#	84647
#	106431
#	125325
#	141718
#	154118
#	159075
#
# Disc length: 2235 seconds
#
# Revision: 1
# Processed by: cddbd v1.5.2PL0 Copyright (c) Steve Scherf et al.
# Submitted via: CDex 1.51
#
DISCID=af08b90d
DTITLE=Heron - Heron
DYEAR=1970
DGENRE=Folk-Rock
TTITLE0=Yellow Roses
TTITLE1=Car Crash
TTITLE2=Harlequin 2
TTITLE3=Smiling Ladies
TTITLE4=Little Boy
TTITLE5=Sally Goodin
TTITLE6=Upon Reflection
TTITLE7=Lord and Master
TTITLE8=Little Angel
TTITLE9=Goodbye
TTITLE10=For You
TTITLE11=Sally Goodin
TTITLE12=Carnival and Penitence
EXTD=YEAR: 1970
EXTT0=
EXTT1=
EXTT2=
EXTT3=
EXTT4=
EXTT5=
EXTT6=
EXTT7=
EXTT8=
EXTT9=
EXTT10=
EXTT11=
EXTT12=
PLAYORDER=
